<?xml version="1.0" standalone="no"?><!DOCTYPE svg PUBLIC "-//W3C//DTD SVG 1.1//EN" "http://www.w3.org/Graphics/SVG/1.1/DTD/svg11.dtd"><svg t="1638930949909" class="icon" viewBox="0 0 1024 1024" version="1.1" xmlns="http://www.w3.org/2000/svg" p-id="6088" xmlns:xlink="http://www.w3.org/1999/xlink" width="200" height="200"><defs><style type="text/css"></style></defs><path d="M515.8912 547.2256c-89.088 0-161.5872-72.4992-161.5872-161.5872s72.4992-161.5872 161.5872-161.5872 161.5872 72.4992 161.5872 161.5872-72.448 161.5872-161.5872 161.5872z m0-261.7856c-55.2448 0-100.1472 44.9536-100.1472 100.1472s44.9536 100.1472 100.1472 100.1472 100.1472-44.9536 100.1472-100.1472-44.9024-100.1472-100.1472-100.1472z" fill="#13227a" p-id="6089"></path><path d="M756.224 788.1216H271.7696c-16.9472 0-30.72-13.7728-30.72-30.72 0-150.528 122.4704-272.9472 272.9472-272.9472s272.9472 122.4704 272.9472 272.9472c0 16.9472-13.7216 30.72-30.72 30.72z m-451.4816-61.44h418.56c-14.8992-102.144-103.0656-180.7872-209.3056-180.7872s-194.3552 78.6432-209.2544 180.7872z" fill="#13227a" p-id="6090"></path><path d="M820.48 956.16h-614.4c-73.4208 0-133.12-59.6992-133.12-133.12v-614.4c0-73.4208 59.6992-133.12 133.12-133.12h614.4c73.4208 0 133.12 59.6992 133.12 133.12v614.4c0 73.4208-59.7504 133.12-133.12 133.12z m-614.4-819.2c-39.5264 0-71.68 32.1536-71.68 71.68v614.4c0 39.5264 32.1536 71.68 71.68 71.68h614.4c39.5264 0 71.68-32.1536 71.68-71.68v-614.4c0-39.5264-32.1536-71.68-71.68-71.68h-614.4z" fill="#13227a" p-id="6091"></path></svg>