<?xml version="1.0" standalone="no"?><!DOCTYPE svg PUBLIC "-//W3C//DTD SVG 1.1//EN" "http://www.w3.org/Graphics/SVG/1.1/DTD/svg11.dtd"><svg t="1638931603358" class="icon" viewBox="0 0 1024 1024" version="1.1" xmlns="http://www.w3.org/2000/svg" p-id="6304" xmlns:xlink="http://www.w3.org/1999/xlink" width="200" height="200"><defs><style type="text/css"></style></defs><path d="M815.36 951.04h-614.4c-73.4208 0-133.12-59.6992-133.12-133.12v-348.16c0-73.4208 59.6992-133.12 133.12-133.12h614.4c73.4208 0 133.12 59.6992 133.12 133.12v348.16c0 73.4208-59.7504 133.12-133.12 133.12z m-614.4-552.96c-39.5264 0-71.68 32.1536-71.68 71.68v348.16c0 39.5264 32.1536 71.68 71.68 71.68h614.4c39.5264 0 71.68-32.1536 71.68-71.68v-348.16c0-39.5264-32.1536-71.68-71.68-71.68h-614.4z" fill="#13227a" p-id="6305"></path><path d="M805.12 367.36h-61.44c0-129.8432-105.6768-235.52-235.52-235.52s-235.52 105.6768-235.52 235.52h-61.44c0-163.7376 133.2224-296.96 296.96-296.96s296.96 133.2224 296.96 296.96zM508.16 664.32c-59.2896 0-107.52-48.2304-107.52-107.52s48.2304-107.52 107.52-107.52 107.52 48.2304 107.52 107.52-48.2304 107.52-107.52 107.52z m0-153.6c-25.3952 0-46.08 20.6848-46.08 46.08s20.6848 46.08 46.08 46.08 46.08-20.6848 46.08-46.08-20.6848-46.08-46.08-46.08z" fill="#13227a" p-id="6306"></path><path d="M508.16 833.28c-16.9472 0-30.72-13.7728-30.72-30.72v-163.84c0-16.9472 13.7728-30.72 30.72-30.72s30.72 13.7728 30.72 30.72v163.84c0 16.9984-13.7728 30.72-30.72 30.72z" fill="#13227a" p-id="6307"></path><path d="M584.96 751.0016h-71.68c-16.9472 0-30.72-13.7728-30.72-30.72s13.7728-30.72 30.72-30.72h71.68c16.9472 0 30.72 13.7728 30.72 30.72s-13.7728 30.72-30.72 30.72z" fill="#13227a" p-id="6308"></path></svg>